<?xml version="1.0"?>
<svg xmlns="http://www.w3.org/2000/svg" id="Capa_1" enable-background="new 0 0 512 512" height="512px" viewBox="0 0 512 512" width="512px" class=""><g><g><path d="m318.887 370.554-7.219-2.961c-6.2-2.543-10.248-8.58-10.248-15.281v-25.906h-99.097v26.089c0 6.609-3.939 12.581-10.014 15.182l-7.327 3.138 7.518 66.685 126 3.5z" fill="#f6d190" data-original="#F6D190" class=""/><path d="m349.473 383.1-30.586-12.546c-11.962 25.021-37.432 42.349-67.016 42.349-29.48 0-54.876-17.208-66.89-42.088l-30.366 13.005-22.798 65.68h240.109z" fill="#eceaec" data-original="#ECEAEC" class=""/><path d="m202.323 326.406c14.832 7.738 31.661 12.175 49.548 12.175s34.716-4.437 49.548-12.175v-29.116h-99.097v29.116z" fill="#ecbd83" data-original="#ECBD83" class=""/><path d="m301.42 49.548h-16.516l-90.839 24.774-37.732 140.388h211.151v-99.097c0-36.487-29.578-66.065-66.064-66.065z" fill="#966a5b" data-original="#966A5B" class=""/><path d="m194.065 74.323h-16.516c-22.804 0-41.29 18.486-41.29 41.29v99.097h57.806z" fill="#785353" data-original="#785353"/><path d="m355.097 189.936h-12.387c-9.122 0-16.516-7.395-16.516-16.516v-16.516c0-13.683-11.092-24.774-24.774-24.774h-99.097c-2.894 0-5.673.497-8.255 1.409l-21.734 97.69c0 50.168 29.368 89.273 79.536 89.273 5.66 0 11.2 1.047 16.573.056 42.255-7.79 74.265-44.822 74.265-89.33h11.211c10.8 0 20.64-7.771 21.716-18.517 1.237-12.36-8.434-22.775-20.538-22.775z" fill="#ffe09f" data-original="#FFE09F" class=""/><path d="m194.065 231.226v-97.696c-9.6 3.413-16.516 12.603-16.516 23.374v16.516c0 9.121-7.395 16.516-16.516 16.516h-11.209c-10.799 0-20.64 7.77-21.716 18.515-1.238 12.358 8.433 22.775 20.538 22.775h12.387v.002c0 50.168 40.669 90.837 90.837 90.837 5.649 0 11.21-.521 16.573-1.508-42.271-7.777-74.378-44.811-74.378-89.331z" fill="#f6d190" data-original="#F6D190" class=""/><path d="m202.331 231.226c-2.903 0-5.718-1.532-7.226-4.246-2.218-3.988-.782-9.016 3.21-11.23l16.734-9.298-16.734-9.298c-3.992-2.214-5.427-7.242-3.21-11.23 2.21-3.976 7.242-5.427 11.226-3.206l29.726 16.516c2.621 1.456 4.25 4.218 4.25 7.218s-1.629 5.762-4.25 7.218l-29.726 16.516c-1.266.705-2.645 1.04-4 1.04z" fill="#e2a975" data-original="#E2A975" class=""/><path d="m301.412 231.226c-1.355 0-2.734-.335-4-1.04l-29.726-16.516c-2.621-1.456-4.25-4.218-4.25-7.218s1.629-5.762 4.25-7.218l29.726-16.516c3.984-2.222 9.016-.77 11.226 3.206 2.218 3.988.782 9.016-3.21 11.23l-16.734 9.298 16.734 9.298c3.992 2.214 5.427 7.242 3.21 11.23-1.509 2.714-4.323 4.246-7.226 4.246z" fill="#e2a975" data-original="#E2A975" class=""/><path d="m270.791 269.992c-1.613 0-3.242-.468-4.669-1.452-7.065-4.855-21.436-4.855-28.5 0-3.75 2.589-8.887 1.637-11.484-2.129-2.581-3.758-1.629-8.895 2.129-11.484 12.613-8.677 34.597-8.677 47.21 0 3.758 2.589 4.71 7.726 2.129 11.484-1.606 2.331-4.186 3.581-6.815 3.581z" fill="#e2a975" data-original="#E2A975" class=""/><path d="m214.836 0-14.086 67 24 5 .378 63.891 59.775-86.342h-33.032l12.893-38.679c1.783-5.348-2.197-10.87-7.834-10.87z" fill="#ff8086" data-original="#FF8086" class=""/><g fill="#ffcacc"><path d="m144.525 49.548c-2.669 0-5.29-1.29-6.879-3.677l-16.516-24.774c-2.532-3.794-1.508-8.923 2.29-11.452 3.806-2.54 8.927-1.504 11.452 2.29l16.516 24.774c2.532 3.794 1.508 8.923-2.29 11.452-1.412.94-3.001 1.387-4.573 1.387z" data-original="#FFCACC" class=""/><path d="m119.742 74.327c-.863 0-1.742-.137-2.613-.427l-24.774-8.258c-4.323-1.444-6.661-6.121-5.218-10.448 1.444-4.323 6.073-6.681 10.444-5.222l24.774 8.258c4.323 1.444 6.661 6.121 5.218 10.448-1.153 3.459-4.371 5.649-7.831 5.649z" data-original="#FFCACC" class=""/><path d="m367.476 49.548c-1.573 0-3.161-.448-4.573-1.387-3.798-2.528-4.823-7.657-2.29-11.452l16.516-24.774c2.524-3.794 7.637-4.831 11.452-2.29 3.798 2.528 4.823 7.657 2.29 11.452l-16.516 24.774c-1.588 2.387-4.209 3.677-6.879 3.677z" data-original="#FFCACC" class=""/><path d="m392.258 74.327c-3.46 0-6.677-2.19-7.831-5.649-1.444-4.327.895-9.004 5.218-10.448l24.774-8.258c4.355-1.46 9 .899 10.444 5.222 1.444 4.327-.895 9.004-5.218 10.448l-24.774 8.258c-.871.29-1.75.427-2.613.427z" data-original="#FFCACC" class=""/></g><path d="m396.537 402.406-47.064-19.306c-16.928 37.043-54.213 62.835-97.602 62.835-43.104 0-80.172-25.462-97.255-62.115l-47.879 20.505c-12.149 5.203-20.028 17.148-20.028 30.364v60.794c0 9.121 7.395 16.516 16.516 16.516h297.29c9.121 0 16.516-7.395 16.516-16.516v-62.518c.002-13.4-8.096-25.474-20.494-30.559z" fill="#dad8db" data-original="#DAD8DB" class="active-path" style="fill:#63C36C" data-old_color="#dad8db"/><path d="m231.162 75.556c.355-3.484-.79-6.952-3.137-9.544-2.347-2.597-5.685-4.077-9.185-4.077h-10.935l6.931-61.935h-5.121c-4.208 0-7.742 3.164-8.207 7.346l-7.442 66.977h24.774l-7.089 70.888c-.312 3.12 3.734 4.609 5.52 2.031l7.858-11.351z" fill="#e5646e" data-original="#E5646E" class="" style="fill:#E5646E"/></g></g> </svg>
